<svg id="icon_question_bg" xmlns="http://www.w3.org/2000/svg" width="16" height="16" viewBox="0 0 16 16">
  <rect id="Rectangle_665" data-name="Rectangle 665" width="16" height="16" rx="8" fill="#eff3f7"/>
  <g id="icon_question" transform="translate(5.071 2.921)">
    <path id="Union_11" data-name="Union 11" d="M2.121,9.99a1,1,0,1,1,1,1A1,1,0,0,1,2.121,9.99Zm.261-2.911a2.826,2.826,0,0,1,1.5-2.2,1.869,1.869,0,0,0,.953-2.031A1.756,1.756,0,0,0,3.164,1.5,1.637,1.637,0,0,0,1.491,2.7C1.085,3.813-.1,3.328.007,2.438A3.158,3.158,0,0,1,3.164,0,3.08,3.08,0,0,1,6.023,1.8a3.145,3.145,0,0,1-.235,3.265C5.132,6.125,3.992,6,3.882,7.219A1.052,1.052,0,0,1,2.947,8.24C2.567,8.24,2.246,7.9,2.382,7.079Z" transform="translate(0 0)" fill="#afb1b8"/>
  </g>
</svg>
