<svg id="XDC-Icon-Logo" xmlns="http://www.w3.org/2000/svg" width="27.815" height="28" viewBox="0 0 27.815 28">
  <g id="Group_212" data-name="Group 212" transform="translate(0 0)">
    <g id="Group_211" data-name="Group 211" transform="translate(0 0)">
      <path id="Path_364" data-name="Path 364" d="M13.907,27.988A14,14,0,0,1,0,15.564l3.142-1.57L0,12.423a13.994,13.994,0,0,1,27.814,0l-3.142,1.571,3.142,1.571A13.994,13.994,0,0,1,13.907,27.988Z" transform="translate(0 0.012)" fill="none"/>
      <path id="Path_365" data-name="Path 365" d="M13.907,26.122a12.135,12.135,0,0,0,11.844-9.5L20.5,13.994l5.251-2.626a12.132,12.132,0,0,0-23.688,0l5.251,2.626L2.064,16.62a12.135,12.135,0,0,0,11.844,9.5m0,1.866A14,14,0,0,1,0,15.565l3.142-1.571L0,12.423a14,14,0,0,1,27.815,0l-3.142,1.571,3.142,1.571A14,14,0,0,1,13.907,27.988Z" transform="translate(0 0.012)" fill="#fff"/>
    </g>
    <path id="Path_366" data-name="Path 366" d="M2.319,11.484,4.8,7.272l2.469,4.212H9.591L6.042,5.7,9.512,0h-2.3L4.8,4.149,2.382,0H.079L3.557,5.7,0,11.484Z" transform="translate(9.089 8.287)" fill="#fff"/>
  </g>
</svg>
